<!-- Generated by IcoMoon.io -->
<svg version="1.1" xmlns="http://www.w3.org/2000/svg" width="384" height="448" viewBox="0 0 384 448">
<title></title>
<g id="icomoon-ignore">
</g>
<path d="M287.5 268.5v27.25c0 35.25-56.25 48.25-91.5 48.25-68.5 0-120-52.25-120-121.25 0-67.75 51-118.75 118.75-118.75 24.75 0 89.5 8.75 89.5 48.5v27.25c0 2.25-1.75 4-4 4h-29.5c-2.25 0-4-1.75-4-4v-17.5c0-15.75-30.25-23-50.75-23-46.75 0-79.25 33.75-79.25 82.25 0 50.25 34 87 81.25 87 18 0 52-6.75 52-22.5v-17.5c0-2.25 1.75-4 3.75-4h29.75c2 0 4 1.75 4 4zM192 64c-88.25 0-160 71.75-160 160s71.75 160 160 160 160-71.75 160-160-71.75-160-160-160zM384 224c0 106-86 192-192 192s-192-86-192-192 86-192 192-192v0c106 0 192 86 192 192z"></path>
</svg>
