<!-- Generated by IcoMoon.io -->
<svg version="1.1" xmlns="http://www.w3.org/2000/svg" width="640" height="640" viewBox="0 0 640 640">
<title></title>
<g id="icomoon-ignore">
</g>
<path fill="#000" d="M569.664 393.536c0 0 51.744 51.104 64.544 74.752 0.352 0.512 0.512 0.896 0.576 1.12 5.216 8.736 6.496 15.584 3.936 20.64-4.32 8.352-18.944 12.544-23.904 12.896 0 0-88.896 0-91.456 0-6.368 0-19.616-1.664-35.744-12.8-12.32-8.608-24.576-22.784-36.448-36.64-17.728-20.576-33.056-38.432-48.576-38.432-1.984 0-3.904 0.32-5.76 0.96-11.744 3.712-26.656 20.448-26.656 65.024 0 13.952-11.008 21.888-18.72 21.888 0 0-39.936 0-41.888 0-14.272 0-88.576-4.992-154.464-74.464-80.736-85.056-153.248-255.68-153.952-257.184-4.512-11.040 4.96-17.056 15.2-17.056h92.352c12.384 0 16.416 7.488 19.232 14.208 3.264 7.712 15.36 38.56 35.2 73.216 32.128 56.384 51.872 79.328 67.648 79.328 2.976 0 5.792-0.736 8.448-2.24 20.608-11.328 16.768-84.928 15.808-100.096 0-2.944-0.032-32.864-10.592-47.328-7.552-10.368-20.416-14.4-28.192-15.872 2.080-3.008 6.496-7.616 12.16-10.336 14.112-7.040 39.616-8.064 64.928-8.064h14.048c27.456 0.384 34.56 2.144 44.544 4.672 20.096 4.8 20.48 17.824 18.72 62.176-0.512 12.672-1.056 26.944-1.056 43.744 0 3.584-0.16 7.584-0.16 11.648-0.608 22.752-1.408 48.384 14.656 58.912 2.048 1.28 4.448 1.984 6.944 1.984 5.568 0 22.24 0 67.456-77.6 19.84-34.272 35.2-74.688 36.256-77.728 0.896-1.696 3.584-6.464 6.848-8.384 2.496-1.536 5.824-1.792 7.552-1.792h108.64c11.84 0 19.872 1.792 21.44 6.272 2.624 7.264-0.512 29.44-50.112 96.512-8.352 11.168-15.68 20.832-22.112 29.28-44.96 59.008-44.96 61.984 2.656 106.784z"></path>
</svg>
