<?xml version="1.0" standalone="no"?>
<!DOCTYPE svg PUBLIC "-//W3C//DTD SVG 20010904//EN"
 "http://www.w3.org/TR/2001/REC-SVG-20010904/DTD/svg10.dtd">
<svg version="1.0" xmlns="http://www.w3.org/2000/svg"
 width="260.000000pt" height="260.000000pt" viewBox="0 0 260.000000 260.000000"
 preserveAspectRatio="xMidYMid meet">
<metadata>
Created by potrace 1.14, written by Peter Selinger 2001-2017
</metadata>
<g transform="translate(0.000000,260.000000) scale(0.100000,-0.100000)"
fill="#000000" stroke="none">
<path d="M1169 2596 c-2 -2 -24 -6 -49 -9 -95 -12 -199 -39 -290 -74 -8 -4
-17 -7 -20 -8 -55 -14 -268 -141 -340 -202 -247 -211 -414 -510 -458 -823 -14
-99 -7 -328 13 -435 5 -30 17 -78 25 -102 1 -5 3 -12 4 -18 1 -5 6 -19 10 -30
4 -11 22 -55 38 -98 90 -229 306 -483 518 -605 113 -66 247 -126 304 -136 14
-3 29 -7 34 -10 5 -3 19 -7 33 -10 13 -2 49 -10 79 -16 78 -17 305 -22 396 -9
504 70 911 407 1067 885 20 60 39 125 42 144 3 19 9 53 13 75 8 50 8 315 0
371 -65 423 -323 781 -703 972 -134 68 -233 100 -390 128 -38 7 -320 16 -326
10z m279 -110 c4 -2 25 -7 47 -10 104 -17 212 -54 343 -119 56 -28 102 -54
102 -59 0 -4 4 -8 10 -8 20 0 117 -76 190 -150 178 -178 289 -398 345 -685 3
-16 7 -68 9 -115 11 -232 -75 -513 -222 -725 -44 -63 -131 -165 -156 -184 -11
-8 -28 -23 -38 -33 -10 -10 -20 -18 -23 -18 -3 0 -16 -9 -28 -21 -33 -31 -199
-127 -270 -156 -240 -98 -467 -122 -682 -73 -27 7 -58 13 -68 15 -89 19 -269
103 -392 184 -107 70 -305 278 -305 319 0 7 -4 12 -8 12 -11 0 -106 192 -130
265 -19 56 -44 151 -57 220 -20 102 -9 298 25 426 31 117 91 260 145 345 19
30 35 59 35 64 0 6 4 10 8 10 4 0 15 12 24 28 74 121 306 304 466 368 20 8 46
19 57 24 33 15 177 58 220 65 114 19 148 22 243 19 57 -2 107 -6 110 -8z"/>
<path d="M873 1973 c-11 -10 -32 -49 -46 -88 -14 -38 -98 -258 -187 -489 -88
-230 -160 -427 -160 -436 0 -10 7 -21 16 -24 28 -11 111 -6 122 7 6 6 28 59
50 117 l39 105 248 0 247 0 46 -114 c31 -78 51 -115 64 -119 20 -5 20 -18 18
-268 -1 -61 2 -123 6 -138 l6 -26 321 2 321 3 6 30 c3 17 3 41 0 55 l-6 25
-257 3 -258 2 3 158 3 157 229 1 c182 1 230 4 237 15 15 25 11 96 -7 103 -9 3
-117 6 -240 6 l-225 0 3 152 3 153 242 0 c163 0 246 4 253 11 6 6 10 33 8 60
l-3 49 -312 2 c-250 1 -314 -1 -323 -12 -7 -8 -10 -51 -8 -118 2 -83 0 -103
-9 -95 -7 6 -13 15 -13 21 0 20 -253 673 -268 690 -12 13 -31 17 -82 17 -50 0
-73 -4 -87 -17z m187 -416 l96 -252 -194 -3 c-107 -1 -197 0 -200 2 -4 5 40
126 145 399 25 64 48 115 51 112 3 -3 49 -119 102 -258z"/>
</g>
</svg>
